<svg xmlns="http://www.w3.org/2000/svg" viewBox="0 0 400 400" role="img" aria-label="Botella de hidratación">
  <title>Botella de hidratación</title>
  <defs>
    <linearGradient id="bg" x1="0" y1="0" x2="1" y2="1">
      <stop offset="0" stop-color="#ffedd5"/>
      <stop offset="1" stop-color="#fdba74"/>
    </linearGradient>
    <radialGradient id="shine" cx="0.35" cy="0.3" r="0.7">
      <stop offset="0" stop-color="#ffffff" stop-opacity="0.55"/>
      <stop offset="1" stop-color="#ffffff" stop-opacity="0"/>
    </radialGradient>
  </defs>
  <rect width="400" height="400" fill="url(#bg)"/>
  <circle cx="330" cy="70" r="90" fill="#ffffff" opacity="0.25"/>
  <circle cx="60" cy="350" r="70" fill="#ffffff" opacity="0.2"/>
  <ellipse cx="200" cy="335" rx="120" ry="14" fill="#0f172a" opacity="0.12"/>
  <rect x="176" y="62" width="48" height="30" rx="8" fill="#334155" stroke="#1f2937" stroke-width="5"/>
  <path d="M184,92 L216,92 L222,116 L178,116 Z" fill="#475569" stroke="#1f2937" stroke-width="5" stroke-linejoin="round"/>
  <path d="M160,140 C160,122 172,116 184,116 L216,116 C228,116 240,122 240,140 L240,318 C240,332 230,340 216,340 L184,340 C170,340 160,332 160,318 Z" fill="#06b6d4" stroke="#1f2937" stroke-width="5"/>
  <rect x="160" y="196" width="80" height="62" fill="#0e7490"/>
  <text x="200" y="234" text-anchor="middle" font-family="Arial,Helvetica,sans-serif" font-size="18" font-weight="700" fill="#ffffff">750</text>
  <rect x="172" y="140" width="10" height="160" rx="5" fill="#ffffff" opacity="0.45"/>
  <path d="M224,72 C262,72 262,112 232,112" fill="none" stroke="#1f2937" stroke-width="6" stroke-linecap="round"/>
</svg>
